<svg xmlns="http://www.w3.org/2000/svg" width="29" height="31" viewBox="0 0 29 31" fill="none">
  <path d="M26.1 2.81818H24.65V0H21.75V2.81818H7.25V0H4.35V2.81818H2.9C1.305 2.81818 0 4.08636 0 5.63636V28.1818C0 29.7318 1.305 31 2.9 31H26.1C27.695 31 29 29.7318 29 28.1818V5.63636C29 4.08636 27.695 2.81818 26.1 2.81818ZM26.1 28.1818H2.9V9.86364H26.1V28.1818Z" fill="#FBFBFB"/>
  <path d="M15.8594 12.7647H12.7781V17.3824H8.15625V20.4608H12.7781V25.0785H15.8594V20.4608H20.4812V17.3824H15.8594V12.7647Z" fill="#FBFBFB"/>
</svg>