<svg xmlns="http://www.w3.org/2000/svg" width="19" height="19" viewBox="0 0 19 19" fill="none">
<path d="M19 3.64151L14.63 0L13.4045 1.4434L17.7745 5.08491L19 3.64151ZM5.586 1.4434L4.37 0L0 3.63208L1.2255 5.07547L5.586 1.4434ZM9.975 5.79245H8.55V11.4528L13.0625 14.1415L13.775 12.9811L9.975 10.7453V5.79245ZM9.5 2.01887C4.7785 2.01887 0.95 5.82076 0.95 10.5094C0.95 15.1981 4.769 19 9.5 19C14.2215 19 18.05 15.1981 18.05 10.5094C18.05 5.82076 14.2215 2.01887 9.5 2.01887ZM9.5 17.1132C5.8235 17.1132 2.85 14.1604 2.85 10.5094C2.85 6.85849 5.8235 3.90566 9.5 3.90566C13.1765 3.90566 16.15 6.85849 16.15 10.5094C16.15 14.1604 13.1765 17.1132 9.5 17.1132Z" fill="#FBFBFB"/>
</svg>