<svg xmlns="http://www.w3.org/2000/svg" width="28" height="28" viewBox="0 0 28 28" fill="none">
  <path d="M7.33091 5.48493L5.04 3.19635L3.24545 4.99909L5.52364 7.28767L7.33091 5.48493ZM3.81818 12.7215H0V15.2785H3.81818V12.7215ZM15.2727 0H12.7273V3.77169H15.2727V0ZM24.7545 4.99909L22.96 3.19635L20.6818 5.48493L22.4764 7.28767L24.7545 4.99909ZM20.6691 22.5151L22.9473 24.8164L24.7418 23.0137L22.4509 20.7251L20.6691 22.5151ZM24.1818 12.7215V15.2785H28V12.7215H24.1818ZM14 6.32877C9.78727 6.32877 6.36364 9.76804 6.36364 14C6.36364 18.232 9.78727 21.6712 14 21.6712C18.2127 21.6712 21.6364 18.232 21.6364 14C21.6364 9.76804 18.2127 6.32877 14 6.32877ZM12.7273 28H15.2727V24.2283H12.7273V28ZM3.24545 23.0009L5.04 24.8037L7.31818 22.5023L5.52364 20.6995L3.24545 23.0009Z" fill="#FBFBFB"/>
</svg>