<svg xmlns="http://www.w3.org/2000/svg" width="20" height="19" viewBox="0 0 20 19" fill="none">
<path d="M10 0C4.48 0 0 4.256 0 9.5C0 14.744 4.48 19 10 19C15.52 19 20 14.744 20 9.5C20 4.256 15.52 0 10 0ZM11 16.15H9V14.25H11V16.15ZM13.07 8.7875L12.17 9.6615C11.45 10.355 11 10.925 11 12.35H9V11.875C9 10.83 9.45 9.88 10.17 9.1865L11.41 7.9895C11.78 7.6475 12 7.1725 12 6.65C12 5.605 11.1 4.75 10 4.75C8.9 4.75 8 5.605 8 6.65H6C6 4.5505 7.79 2.85 10 2.85C12.21 2.85 14 4.5505 14 6.65C14 7.486 13.64 8.246 13.07 8.7875Z" fill="#EF476F"/>
</svg>