<svg xmlns="http://www.w3.org/2000/svg" width="29" height="36" viewBox="0 0 29 36" fill="none">
  <g filter="url(#filter0_d_1372_782)">
    <path d="M14.5626 9.00307C16.2581 9.00307 17.6326 7.64027 17.6326 5.95918C17.6326 4.27808 16.2581 2.91528 14.5626 2.91528C12.8671 2.91528 11.4927 4.27808 11.4927 5.95918C11.4927 7.64027 12.8671 9.00307 14.5626 9.00307Z" fill="#0085FF"/>
    <path d="M20.5338 12.2144C19.9351 11.6208 18.9067 10.525 16.9112 10.525C16.5889 10.525 14.7316 10.525 13.0124 10.525C9.13219 10.511 5.91345 7.62922 5.4188 3.91289C5.34593 3.36543 4.90519 2.91528 4.3529 2.91528H3.28296C2.73068 2.91528 2.27798 3.36435 2.3299 3.91419C2.71853 8.02931 5.48335 11.4749 9.25155 12.8899C9.66545 13.0453 9.95781 13.4305 9.95781 13.8727V32.3542C9.95781 32.9065 10.4055 33.3542 10.9578 33.3542H12.0278C12.58 33.3542 13.0278 32.9065 13.0278 32.3542V25.2225C13.0278 24.6703 13.4755 24.2225 14.0278 24.2225H15.0977C15.65 24.2225 16.0977 24.6703 16.0977 25.2225V32.3542C16.0977 32.9065 16.5454 33.3542 17.0977 33.3542H18.1676C18.7199 33.3542 19.1676 32.9065 19.1676 32.3542V17.5667C19.1676 16.6778 20.2405 16.2308 20.8717 16.8566L24.5267 20.4805C24.9165 20.8671 25.545 20.8671 25.9349 20.4805L26.6797 19.742C27.0739 19.3511 27.0743 18.7139 26.6805 18.3226L20.5338 12.2144Z" fill="#0085FF"/>
  </g>
  <defs>
    <filter id="filter0_d_1372_782" x="0.325928" y="0.915283" width="28.6497" height="34.439" filterUnits="userSpaceOnUse" color-interpolation-filters="sRGB">
      <feFlood flood-opacity="0" result="BackgroundImageFix"/>
      <feColorMatrix in="SourceAlpha" type="matrix" values="0 0 0 0 0 0 0 0 0 0 0 0 0 0 0 0 0 0 127 0" result="hardAlpha"/>
      <feOffset/>
      <feGaussianBlur stdDeviation="1"/>
      <feComposite in2="hardAlpha" operator="out"/>
      <feColorMatrix type="matrix" values="0 0 0 0 0 0 0 0 0 0 0 0 0 0 0 0 0 0 0.25 0"/>
      <feBlend mode="normal" in2="BackgroundImageFix" result="effect1_dropShadow_1372_782"/>
      <feBlend mode="normal" in="SourceGraphic" in2="effect1_dropShadow_1372_782" result="shape"/>
    </filter>
  </defs>
</svg>