<svg xmlns="http://www.w3.org/2000/svg" width="34" height="34" viewBox="0 0 34 34" fill="none">
  <g filter="url(#filter0_d_1372_771)">
    <path d="M17 2C8.73349 2 2 8.73349 2 17C2 25.2665 8.73349 32 17 32C25.2665 32 32 25.2665 32 17C32 8.73349 25.2665 2 17 2ZM17 5C23.6452 5 29 10.3548 29 17C29 23.6452 23.6452 29 17 29C10.3548 29 5 23.6452 5 17C5 10.3548 10.3548 5 17 5ZM16.5 8C15.9477 8 15.5 8.44772 15.5 9V17.2069C15.5 17.4721 15.6054 17.7264 15.7929 17.914L21.2323 23.3534C21.6229 23.744 22.256 23.744 22.6466 23.3534L23.3534 22.6466C23.744 22.256 23.744 21.6229 23.3534 21.2323L18.7929 16.6718C18.6054 16.4843 18.5 16.2299 18.5 15.9647V9C18.5 8.44772 18.0523 8 17.5 8H16.5Z" fill="#FF3434" fill-opacity="0.2" shape-rendering="crispEdges"/>
  </g>
  <defs>
    <filter id="filter0_d_1372_771" x="0" y="0" width="34" height="34" filterUnits="userSpaceOnUse" color-interpolation-filters="sRGB">
      <feFlood flood-opacity="0" result="BackgroundImageFix"/>
      <feColorMatrix in="SourceAlpha" type="matrix" values="0 0 0 0 0 0 0 0 0 0 0 0 0 0 0 0 0 0 127 0" result="hardAlpha"/>
      <feOffset/>
      <feGaussianBlur stdDeviation="1"/>
      <feComposite in2="hardAlpha" operator="out"/>
      <feColorMatrix type="matrix" values="0 0 0 0 0 0 0 0 0 0 0 0 0 0 0 0 0 0 0.25 0"/>
      <feBlend mode="normal" in2="BackgroundImageFix" result="effect1_dropShadow_1372_771"/>
      <feBlend mode="normal" in="SourceGraphic" in2="effect1_dropShadow_1372_771" result="shape"/>
    </filter>
  </defs>
</svg>