<svg xmlns="http://www.w3.org/2000/svg" width="32" height="29" viewBox="0 0 32 29" fill="none">
  <g filter="url(#filter0_d_1372_765)">
    <path d="M16.6577 2.57416C16.2809 2.24524 15.7191 2.24524 15.3423 2.57416L3.0083 13.3422C2.3123 13.9498 2.74205 15.0955 3.66596 15.0955H4.09091C4.64319 15.0955 5.09091 15.5432 5.09091 16.0955V26C5.09091 26.5523 5.53862 27 6.09091 27H12.2727C12.825 27 13.2727 26.5523 13.2727 26V20.0637C13.2727 19.5114 13.7204 19.0637 14.2727 19.0637H17.7273C18.2796 19.0637 18.7273 19.5114 18.7273 20.0637V26C18.7273 26.5523 19.175 27 19.7273 27H25.9091C26.4614 27 26.9091 26.5523 26.9091 26V16.0955C26.9091 15.5432 27.3568 15.0955 27.9091 15.0955H28.334C29.258 15.0955 29.6877 13.9498 28.9917 13.3422L16.6577 2.57416Z" fill="#00BC13"/>
  </g>
  <defs>
    <filter id="filter0_d_1372_765" x="0.664062" y="0.327515" width="30.6719" height="28.6725" filterUnits="userSpaceOnUse" color-interpolation-filters="sRGB">
      <feFlood flood-opacity="0" result="BackgroundImageFix"/>
      <feColorMatrix in="SourceAlpha" type="matrix" values="0 0 0 0 0 0 0 0 0 0 0 0 0 0 0 0 0 0 127 0" result="hardAlpha"/>
      <feOffset/>
      <feGaussianBlur stdDeviation="1"/>
      <feComposite in2="hardAlpha" operator="out"/>
      <feColorMatrix type="matrix" values="0 0 0 0 0 0 0 0 0 0 0 0 0 0 0 0 0 0 0.25 0"/>
      <feBlend mode="normal" in2="BackgroundImageFix" result="effect1_dropShadow_1372_765"/>
      <feBlend mode="normal" in="SourceGraphic" in2="effect1_dropShadow_1372_765" result="shape"/>
    </filter>
  </defs>
</svg>